<svg width="21" height="20" viewBox="0 0 21 20" fill="none" xmlns="http://www.w3.org/2000/svg">
<path d="M17.6895 3.84124C17.2638 3.41541 16.7585 3.07761 16.2023 2.84714C15.6461 2.61667 15.0499 2.49805 14.4478 2.49805C13.8457 2.49805 13.2496 2.61667 12.6933 2.84714C12.1371 3.07761 11.6318 3.41541 11.2061 3.84124L10.3228 4.72457L9.43948 3.84124C8.57974 2.98149 7.41367 2.49849 6.19781 2.49849C4.98195 2.49849 3.81589 2.98149 2.95615 3.84124C2.0964 4.70098 1.6134 5.86704 1.6134 7.0829C1.6134 8.29876 2.0964 9.46483 2.95615 10.3246L3.83948 11.2079L10.3228 17.6912L16.8061 11.2079L17.6895 10.3246C18.1153 9.89894 18.4531 9.39358 18.6836 8.83736C18.914 8.28115 19.0327 7.68497 19.0327 7.0829C19.0327 6.48083 18.914 5.88465 18.6836 5.32844C18.4531 4.77222 18.1153 4.26687 17.6895 3.84124Z" fill="#4F4F4F"/>
</svg>
