<svg width="21" height="20" viewBox="0 0 21 20" fill="none" xmlns="http://www.w3.org/2000/svg">
<rect width="20" height="20" transform="translate(0.67572)" fill="white"/>
<path d="M18.1757 8.33301C18.1757 14.1663 10.6757 19.1663 10.6757 19.1663C10.6757 19.1663 3.17572 14.1663 3.17572 8.33301C3.17572 6.34388 3.9659 4.43623 5.37242 3.02971C6.77894 1.62318 8.6866 0.833008 10.6757 0.833008C12.6648 0.833008 14.5725 1.62318 15.979 3.02971C17.3855 4.43623 18.1757 6.34388 18.1757 8.33301Z" fill="#4F4F4F"/>
<path d="M10.6757 10.833C12.0564 10.833 13.1757 9.71372 13.1757 8.33301C13.1757 6.9523 12.0564 5.83301 10.6757 5.83301C9.29501 5.83301 8.17572 6.9523 8.17572 8.33301C8.17572 9.71372 9.29501 10.833 10.6757 10.833Z" fill="white"/>
</svg>
