<svg width="21" height="20" viewBox="0 0 21 20" fill="none" xmlns="http://www.w3.org/2000/svg">
<path d="M18.6328 14.0994V16.5994C18.6338 16.8315 18.5862 17.0612 18.4932 17.2739C18.4003 17.4865 18.2639 17.6774 18.0929 17.8343C17.9219 17.9912 17.72 18.1107 17.5001 18.185C17.2803 18.2594 17.0473 18.287 16.8162 18.2661C14.2518 17.9875 11.7886 17.1112 9.62448 15.7078C7.61101 14.4283 5.90393 12.7212 4.62448 10.7078C3.21613 8.53377 2.33969 6.05859 2.06615 3.48276C2.04533 3.25232 2.07271 3.02006 2.14657 2.80078C2.22042 2.5815 2.33913 2.38 2.49512 2.20911C2.65112 2.03822 2.84099 1.90169 3.05264 1.8082C3.2643 1.71471 3.4931 1.66631 3.72448 1.6661H6.22448C6.62891 1.66212 7.02098 1.80533 7.32762 2.06904C7.63426 2.33275 7.83455 2.69897 7.89115 3.09943C7.99667 3.89949 8.19236 4.68504 8.47448 5.4411C8.5866 5.73937 8.61087 6.06353 8.54441 6.37516C8.47794 6.6868 8.32354 6.97286 8.09948 7.19943L7.04115 8.25776C8.22745 10.3441 9.95486 12.0715 12.0412 13.2578L13.0995 12.1994C13.3261 11.9754 13.6121 11.821 13.9237 11.7545C14.2354 11.688 14.5595 11.7123 14.8578 11.8244C15.6139 12.1066 16.3994 12.3022 17.1995 12.4078C17.6043 12.4649 17.974 12.6688 18.2383 12.9807C18.5025 13.2926 18.643 13.6907 18.6328 14.0994Z" fill="#4F4F4F"/>
</svg>
