<svg width="47" height="48" viewBox="0 0 47 48" fill="none" xmlns="http://www.w3.org/2000/svg">
<g clip-path="url(#clip0_1260_7317)">
<path d="M38.1009 35.0388L33.1934 37.8721C32.9363 38.0206 32.5678 37.9219 32.4194 37.6647L29.586 32.7573C29.2041 32.0957 30.1918 31.5399 30.5675 32.1906L33.1175 36.6073L37.5342 34.0573C38.1624 33.6946 38.7526 34.6625 38.1009 35.0388ZM33.064 20.6071C35.2182 24.7328 35.7949 29.696 34.2771 34.4656C34.0534 35.1365 32.9677 34.8224 33.2093 34.1006C36.0572 25.1501 31.0282 15.6122 22.0738 12.7599C17.5192 11.313 12.5475 11.8409 8.40562 14.2322L7.92763 14.5082C7.25628 14.8958 6.72593 13.8933 7.36096 13.5267L7.83895 13.2507C12.2557 10.7007 17.5606 10.1153 22.4218 11.6626C27.1881 13.177 30.9111 16.4793 33.0659 20.606L33.064 20.6071Z" fill="black"/>
</g>
<defs>
<clipPath id="clip0_1260_7317">
<rect width="34" height="34" fill="white" transform="translate(29.4449 0.777344) rotate(60)"/>
</clipPath>
</defs>
</svg>
