<svg width="21" height="20" viewBox="0 0 21 20" fill="none" xmlns="http://www.w3.org/2000/svg">
<g clip-path="url(#clip0_8126_5142)">
<path d="M20.5428 14.6002C20.5186 14.548 20.496 14.5047 20.475 14.47C20.128 13.8451 19.4649 13.078 18.4861 12.1686L18.4654 12.1477L18.4551 12.1375L18.4446 12.1271H18.4341C17.9898 11.7036 17.7085 11.4188 17.5907 11.2731C17.3752 10.9953 17.3269 10.7143 17.4447 10.4294C17.5279 10.2143 17.8406 9.75981 18.3819 9.06548C18.6666 8.69751 18.8921 8.40259 19.0587 8.1804C20.2598 6.58363 20.7805 5.56328 20.6207 5.11893L20.5587 5.01509C20.517 4.95258 20.4094 4.89539 20.236 4.84324C20.0623 4.79119 19.8402 4.78258 19.5694 4.81727L16.5705 4.83798C16.5219 4.82077 16.4525 4.82237 16.3622 4.84324C16.2719 4.8641 16.2267 4.87457 16.2267 4.87457L16.1745 4.90064L16.1331 4.93197C16.0984 4.95269 16.0602 4.98913 16.0185 5.04121C15.977 5.09311 15.9424 5.15402 15.9146 5.22343C15.5881 6.06342 15.2169 6.84441 14.8003 7.56635C14.5434 7.99683 14.3075 8.36991 14.0921 8.6858C13.8769 9.00158 13.6964 9.23424 13.5507 9.38337C13.4049 9.53265 13.2732 9.65225 13.1549 9.74259C13.0369 9.83297 12.9468 9.87116 12.8844 9.85719C12.8218 9.84322 12.7629 9.82936 12.7071 9.8155C12.61 9.75298 12.5319 9.66797 12.473 9.56037C12.4138 9.45278 12.374 9.31736 12.3532 9.15422C12.3324 8.99096 12.3202 8.85055 12.3167 8.73248C12.3134 8.61457 12.3149 8.44778 12.322 8.23259C12.3292 8.01729 12.3324 7.87162 12.3324 7.79525C12.3324 7.53141 12.3376 7.24506 12.3479 6.93614C12.3584 6.62722 12.3669 6.38245 12.374 6.20213C12.3811 6.02163 12.3844 5.83066 12.3844 5.62933C12.3844 5.428 12.3721 5.27011 12.3479 5.15551C12.324 5.04106 12.2873 4.92997 12.2389 4.82226C12.1902 4.71467 12.1189 4.63144 12.0254 4.57235C11.9317 4.51334 11.8152 4.46651 11.6766 4.43172C11.3086 4.34845 10.84 4.30341 10.2707 4.2964C8.97949 4.28254 8.14985 4.36592 7.78192 4.54642C7.63614 4.62269 7.50422 4.72689 7.38626 4.8587C7.26127 5.01148 7.24384 5.09486 7.33407 5.10857C7.75066 5.17098 8.04558 5.32026 8.21915 5.55627L8.2817 5.68134C8.33036 5.77157 8.37894 5.93132 8.42755 6.16037C8.4761 6.38942 8.50743 6.64279 8.52122 6.92035C8.55586 7.42721 8.55586 7.86108 8.52122 8.22201C8.48646 8.58309 8.45363 8.86419 8.4223 9.06551C8.39097 9.26684 8.34414 9.42998 8.2817 9.5549C8.21915 9.67986 8.17754 9.75623 8.15667 9.78395C8.13585 9.81167 8.11849 9.82914 8.1047 9.836C8.01447 9.87057 7.92062 9.88819 7.8235 9.88819C7.72622 9.88819 7.60827 9.83953 7.46946 9.7423C7.33068 9.64506 7.18665 9.5115 7.03737 9.34139C6.88809 9.17125 6.71973 8.93348 6.53222 8.62806C6.34486 8.32264 6.15047 7.96167 5.94914 7.54516L5.78257 7.24309C5.67844 7.04877 5.53619 6.76581 5.35569 6.39449C5.17508 6.02301 5.01544 5.66369 4.87666 5.31658C4.82119 5.1708 4.73785 5.05981 4.62679 4.98344L4.57467 4.95211C4.54002 4.92439 4.4844 4.89495 4.4081 4.86359C4.33169 4.83226 4.25196 4.80979 4.16858 4.79597L1.31538 4.81668C1.02381 4.81668 0.825987 4.88274 0.721822 5.01466L0.680134 5.07706C0.659308 5.11182 0.648804 5.16733 0.648804 5.24374C0.648804 5.32011 0.66963 5.41385 0.711318 5.52483C1.12783 6.50376 1.58079 7.44785 2.07017 8.35725C2.55956 9.26666 2.98483 9.99921 3.34573 10.5542C3.7067 11.1097 4.07463 11.6339 4.44953 12.1267C4.82443 12.6196 5.07259 12.9355 5.19401 13.0742C5.31557 13.2133 5.41106 13.3172 5.48046 13.3866L5.74084 13.6365C5.90745 13.8031 6.15211 14.0027 6.47493 14.2352C6.79782 14.4679 7.15528 14.6969 7.54751 14.9227C7.93981 15.1482 8.39619 15.3322 8.91691 15.4744C9.43755 15.6169 9.9443 15.674 10.4372 15.6464H11.6348C11.8776 15.6255 12.0616 15.5491 12.1867 15.4173L12.2281 15.3651C12.256 15.3237 12.2821 15.2593 12.3062 15.1727C12.3305 15.0859 12.3426 14.9903 12.3426 14.8863C12.3355 14.5879 12.3582 14.3189 12.4102 14.0794C12.4621 13.84 12.5212 13.6595 12.5874 13.5379C12.6535 13.4165 12.7281 13.314 12.8112 13.2309C12.8944 13.1476 12.9537 13.0972 12.9885 13.0798C13.0231 13.0624 13.0507 13.0505 13.0715 13.0434C13.2381 12.9879 13.4342 13.0416 13.66 13.2049C13.8857 13.3681 14.0974 13.5695 14.2953 13.8089C14.4932 14.0485 14.7309 14.3174 15.0085 14.6158C15.2864 14.9144 15.5293 15.1363 15.7375 15.2823L15.9456 15.4073C16.0847 15.4907 16.2652 15.567 16.4874 15.6364C16.7092 15.7058 16.9035 15.7232 17.0703 15.6885L19.736 15.6469C19.9997 15.6469 20.2048 15.6033 20.3503 15.5166C20.4962 15.4299 20.5828 15.3343 20.6107 15.2303C20.6386 15.1262 20.6401 15.0081 20.616 14.8761C20.5913 14.7444 20.567 14.6523 20.5428 14.6002Z" fill="#4F4F4F"/>
</g>
<defs>
<clipPath id="clip0_8126_5142">
<rect width="20" height="20" fill="white" transform="translate(0.648804)"/>
</clipPath>
</defs>
</svg>
