<svg width="21" height="20" viewBox="0 0 21 20" fill="none" xmlns="http://www.w3.org/2000/svg">
<g clip-path="url(#clip0_8126_5139)">
<path d="M19.7558 5.34967C19.6568 4.95418 19.4552 4.59182 19.1713 4.29918C18.8875 4.00654 18.5314 3.794 18.1391 3.68301C16.7058 3.33301 10.9724 3.33301 10.9724 3.33301C10.9724 3.33301 5.23911 3.33301 3.80577 3.71634C3.41348 3.82733 3.05742 4.03987 2.77356 4.33251C2.4897 4.62515 2.2881 4.98752 2.18911 5.38301C1.92679 6.83764 1.79847 8.31327 1.80577 9.79134C1.79642 11.2805 1.92475 12.7674 2.18911 14.233C2.29824 14.6162 2.50436 14.9648 2.78756 15.2451C3.07076 15.5254 3.42146 15.7279 3.80577 15.833C5.23911 16.2163 10.9724 16.2163 10.9724 16.2163C10.9724 16.2163 16.7058 16.2163 18.1391 15.833C18.5314 15.722 18.8875 15.5095 19.1713 15.2168C19.4552 14.9242 19.6568 14.5618 19.7558 14.1663C20.0161 12.7227 20.1444 11.2583 20.1391 9.79134C20.1485 8.30214 20.0201 6.81526 19.7558 5.34967Z" fill="#4F4F4F"/>
<path d="M9.09827 12.5164L13.8899 9.79141L9.09827 7.06641V12.5164Z" fill="white"/>
</g>
<defs>
<clipPath id="clip0_8126_5139">
<rect width="20" height="20" fill="white" transform="translate(0.973267)"/>
</clipPath>
</defs>
</svg>
