<svg width="153" height="48" viewBox="0 0 153 48" fill="none" xmlns="http://www.w3.org/2000/svg">
<rect width="153" height="47" transform="translate(0 0.5)" fill="white"/>
<mask id="path-1-outside-1_8126_5108" maskUnits="userSpaceOnUse" x="18.559" y="1.30273" width="100" height="21" fill="black">
<rect fill="white" x="18.559" y="1.30273" width="100" height="21"/>
<path d="M21.3075 2.6113L29.5615 18.0651H29.6644L37.9956 2.6113H39.7698V20.6108H37.4299V6.0312H37.327L29.2015 20.9193H28.7387L20.7932 5.92834H20.6904V20.6108H19.559V2.6113H21.3075Z"/>
<path d="M44.1505 11.611C44.1505 10.6339 44.3305 9.59681 44.6905 8.4997C45.0677 7.40259 45.6505 6.39976 46.4391 5.49121C47.2276 4.56553 48.2304 3.80269 49.4475 3.20271C50.6646 2.60273 52.1217 2.30273 53.8188 2.30273C55.5331 2.30273 57.0159 2.6113 58.2673 3.22842C59.5358 3.8284 60.5815 4.59124 61.4043 5.51693C62.2272 6.44261 62.8357 7.45401 63.23 8.55112C63.6243 9.63109 63.8214 10.6511 63.8214 11.611C63.8214 12.2453 63.7271 12.9139 63.5386 13.6167C63.3671 14.3195 63.1014 15.0224 62.7414 15.7252C62.3986 16.4109 61.9529 17.0709 61.4043 17.7051C60.8558 18.3223 60.2044 18.8708 59.4501 19.3508C58.713 19.8308 57.873 20.2165 56.9302 20.5079C56.0045 20.7822 54.9674 20.9193 53.8188 20.9193C52.1217 20.9193 50.6646 20.6193 49.4475 20.0194C48.2304 19.4022 47.2276 18.6308 46.4391 17.7051C45.6505 16.7795 45.0677 15.7766 44.6905 14.6967C44.3305 13.5996 44.1505 12.571 44.1505 11.611ZM46.6705 11.611C46.6705 12.811 46.8505 13.9167 47.2105 14.9281C47.5876 15.9223 48.0933 16.7795 48.7276 17.4994C49.379 18.2194 50.1418 18.7851 51.0161 19.1965C51.8903 19.5908 52.8417 19.7879 53.8703 19.7879C54.8817 19.7879 55.8331 19.5908 56.7245 19.1965C57.633 18.7851 58.4216 18.2194 59.0901 17.4994C59.7758 16.7795 60.3158 15.9223 60.7101 14.9281C61.1043 13.9167 61.3015 12.811 61.3015 11.611C61.3015 10.4111 61.1043 9.31396 60.7101 8.3197C60.3158 7.3083 59.7758 6.44261 59.0901 5.72263C58.4216 5.00266 57.633 4.44553 56.7245 4.05125C55.8331 3.63984 54.8817 3.43413 53.8703 3.43413C52.8417 3.43413 51.8903 3.63984 51.0161 4.05125C50.1418 4.44553 49.379 5.00266 48.7276 5.72263C48.0933 6.44261 47.5876 7.3083 47.2105 8.3197C46.8505 9.31396 46.6705 10.4111 46.6705 11.611Z"/>
<path d="M68.4559 20.6108V2.6113H74.37C75.7928 2.6113 77.0956 2.84272 78.2784 3.30556C79.4613 3.75126 80.4727 4.37696 81.3126 5.18265C82.1698 5.9712 82.8297 6.91403 83.2926 8.01114C83.7726 9.10825 84.0126 10.2911 84.0126 11.5596C84.0126 12.8796 83.764 14.0967 83.2669 15.2109C82.7869 16.308 82.1183 17.2594 81.2612 18.0651C80.4212 18.8708 79.4356 19.4965 78.3042 19.9422C77.1728 20.3879 75.9642 20.6108 74.6785 20.6108H68.4559ZM70.7958 19.4794H73.6243C75.03 19.4794 76.2214 19.248 77.1985 18.7851C78.1927 18.3051 79.007 17.688 79.6413 16.9337C80.2755 16.1795 80.7384 15.3395 81.0298 14.4138C81.3212 13.471 81.4669 12.5367 81.4669 11.611C81.4669 10.5825 81.2955 9.59681 80.9526 8.65398C80.6098 7.69401 80.1041 6.85403 79.4355 6.13405C78.7841 5.39693 77.9699 4.81409 76.9928 4.38553C76.0156 3.95697 74.8928 3.74269 73.6243 3.74269H70.7958V19.4794Z"/>
<path d="M86.832 2.6113H89.1719V14.3624C89.1719 14.7052 89.1805 15.0481 89.1977 15.3909C89.2148 15.7338 89.2748 16.0766 89.3777 16.4195C89.4805 16.7452 89.6348 17.0794 89.8405 17.4223C90.0462 17.7651 90.3462 18.108 90.7405 18.4508C91.2376 18.8965 91.7604 19.2308 92.309 19.4537C92.8747 19.6765 93.5175 19.7879 94.2375 19.7879C95.0775 19.7879 95.8832 19.6679 96.6546 19.428C97.426 19.188 98.1203 18.7337 98.7374 18.0651C99.0802 17.688 99.3374 17.3109 99.5088 16.9337C99.6974 16.5566 99.8345 16.1795 99.9202 15.8023C100.006 15.4081 100.057 15.0224 100.074 14.6452C100.092 14.251 100.1 13.8653 100.1 13.4881V2.6113H101.232V14.3367C101.232 15.2452 101.086 16.1023 100.794 16.908C100.503 17.6966 100.066 18.3908 99.4831 18.9908C98.9174 19.5908 98.206 20.0622 97.3488 20.4051C96.5089 20.7479 95.5403 20.9193 94.4432 20.9193C92.6947 20.9193 91.3147 20.6793 90.3033 20.1994C89.2919 19.7022 88.5291 19.0937 88.0148 18.3737C87.5006 17.6366 87.1749 16.848 87.0377 16.0081C86.9006 15.1509 86.832 14.371 86.832 13.6681V2.6113Z"/>
<path d="M104.233 16.0595H105.982C105.999 16.3509 106.067 16.7109 106.187 17.1394C106.307 17.5509 106.539 17.9537 106.882 18.348C107.224 18.7423 107.722 19.0851 108.373 19.3765C109.024 19.6508 109.89 19.7879 110.97 19.7879C112.324 19.7879 113.404 19.5308 114.21 19.0165C115.033 18.5023 115.444 17.688 115.444 16.5737C115.444 15.6823 115.187 14.9709 114.673 14.4395C114.158 13.9081 113.507 13.4624 112.719 13.1024C111.947 12.7253 111.107 12.391 110.199 12.0996C109.29 11.8082 108.441 11.4568 107.653 11.0453C106.882 10.6339 106.239 10.1197 105.724 9.50253C105.21 8.8854 104.953 8.07114 104.953 7.05974C104.953 6.28833 105.107 5.60264 105.416 5.00266C105.742 4.40267 106.17 3.90554 106.702 3.51127C107.25 3.117 107.876 2.817 108.579 2.6113C109.299 2.40559 110.053 2.30273 110.841 2.30273C111.596 2.30273 112.316 2.39702 113.001 2.58558C113.704 2.75701 114.33 3.02271 114.878 3.3827C115.427 3.72555 115.881 4.15411 116.241 4.66838C116.601 5.16551 116.833 5.73121 116.936 6.36547H115.187C115.05 5.35407 114.587 4.61695 113.798 4.15411C113.027 3.67412 112.084 3.43413 110.97 3.43413C110.301 3.43413 109.71 3.51984 109.196 3.69126C108.681 3.84555 108.244 4.05983 107.884 4.3341C107.542 4.59124 107.276 4.8998 107.087 5.25979C106.916 5.61978 106.83 6.00548 106.83 6.4169C106.83 7.15402 107.096 7.74543 107.627 8.19114C108.159 8.63684 108.819 9.03111 109.607 9.37396C110.413 9.7168 111.279 10.0425 112.204 10.3511C113.147 10.6596 114.013 11.0453 114.801 11.5082C115.607 11.9539 116.276 12.5196 116.807 13.2053C117.338 13.8738 117.604 14.7395 117.604 15.8023C117.604 16.5737 117.45 17.2766 117.141 17.9109C116.833 18.5451 116.396 19.0851 115.83 19.5308C115.264 19.9765 114.578 20.3194 113.773 20.5593C112.984 20.7993 112.093 20.9193 111.099 20.9193C110.121 20.9193 109.221 20.8079 108.399 20.5851C107.576 20.3451 106.856 20.0194 106.239 19.6079C105.639 19.1794 105.159 18.6651 104.799 18.0651C104.456 17.4652 104.267 16.7966 104.233 16.0595Z"/>
</mask>
<path d="M21.3075 2.6113L29.5615 18.0651H29.6644L37.9956 2.6113H39.7698V20.6108H37.4299V6.0312H37.327L29.2015 20.9193H28.7387L20.7932 5.92834H20.6904V20.6108H19.559V2.6113H21.3075Z" fill="#4F4F4F"/>
<path d="M44.1505 11.611C44.1505 10.6339 44.3305 9.59681 44.6905 8.4997C45.0677 7.40259 45.6505 6.39976 46.4391 5.49121C47.2276 4.56553 48.2304 3.80269 49.4475 3.20271C50.6646 2.60273 52.1217 2.30273 53.8188 2.30273C55.5331 2.30273 57.0159 2.6113 58.2673 3.22842C59.5358 3.8284 60.5815 4.59124 61.4043 5.51693C62.2272 6.44261 62.8357 7.45401 63.23 8.55112C63.6243 9.63109 63.8214 10.6511 63.8214 11.611C63.8214 12.2453 63.7271 12.9139 63.5386 13.6167C63.3671 14.3195 63.1014 15.0224 62.7414 15.7252C62.3986 16.4109 61.9529 17.0709 61.4043 17.7051C60.8558 18.3223 60.2044 18.8708 59.4501 19.3508C58.713 19.8308 57.873 20.2165 56.9302 20.5079C56.0045 20.7822 54.9674 20.9193 53.8188 20.9193C52.1217 20.9193 50.6646 20.6193 49.4475 20.0194C48.2304 19.4022 47.2276 18.6308 46.4391 17.7051C45.6505 16.7795 45.0677 15.7766 44.6905 14.6967C44.3305 13.5996 44.1505 12.571 44.1505 11.611ZM46.6705 11.611C46.6705 12.811 46.8505 13.9167 47.2105 14.9281C47.5876 15.9223 48.0933 16.7795 48.7276 17.4994C49.379 18.2194 50.1418 18.7851 51.0161 19.1965C51.8903 19.5908 52.8417 19.7879 53.8703 19.7879C54.8817 19.7879 55.8331 19.5908 56.7245 19.1965C57.633 18.7851 58.4216 18.2194 59.0901 17.4994C59.7758 16.7795 60.3158 15.9223 60.7101 14.9281C61.1043 13.9167 61.3015 12.811 61.3015 11.611C61.3015 10.4111 61.1043 9.31396 60.7101 8.3197C60.3158 7.3083 59.7758 6.44261 59.0901 5.72263C58.4216 5.00266 57.633 4.44553 56.7245 4.05125C55.8331 3.63984 54.8817 3.43413 53.8703 3.43413C52.8417 3.43413 51.8903 3.63984 51.0161 4.05125C50.1418 4.44553 49.379 5.00266 48.7276 5.72263C48.0933 6.44261 47.5876 7.3083 47.2105 8.3197C46.8505 9.31396 46.6705 10.4111 46.6705 11.611Z" fill="#4F4F4F"/>
<path d="M68.4559 20.6108V2.6113H74.37C75.7928 2.6113 77.0956 2.84272 78.2784 3.30556C79.4613 3.75126 80.4727 4.37696 81.3126 5.18265C82.1698 5.9712 82.8297 6.91403 83.2926 8.01114C83.7726 9.10825 84.0126 10.2911 84.0126 11.5596C84.0126 12.8796 83.764 14.0967 83.2669 15.2109C82.7869 16.308 82.1183 17.2594 81.2612 18.0651C80.4212 18.8708 79.4356 19.4965 78.3042 19.9422C77.1728 20.3879 75.9642 20.6108 74.6785 20.6108H68.4559ZM70.7958 19.4794H73.6243C75.03 19.4794 76.2214 19.248 77.1985 18.7851C78.1927 18.3051 79.007 17.688 79.6413 16.9337C80.2755 16.1795 80.7384 15.3395 81.0298 14.4138C81.3212 13.471 81.4669 12.5367 81.4669 11.611C81.4669 10.5825 81.2955 9.59681 80.9526 8.65398C80.6098 7.69401 80.1041 6.85403 79.4355 6.13405C78.7841 5.39693 77.9699 4.81409 76.9928 4.38553C76.0156 3.95697 74.8928 3.74269 73.6243 3.74269H70.7958V19.4794Z" fill="#4F4F4F"/>
<path d="M86.832 2.6113H89.1719V14.3624C89.1719 14.7052 89.1805 15.0481 89.1977 15.3909C89.2148 15.7338 89.2748 16.0766 89.3777 16.4195C89.4805 16.7452 89.6348 17.0794 89.8405 17.4223C90.0462 17.7651 90.3462 18.108 90.7405 18.4508C91.2376 18.8965 91.7604 19.2308 92.309 19.4537C92.8747 19.6765 93.5175 19.7879 94.2375 19.7879C95.0775 19.7879 95.8832 19.6679 96.6546 19.428C97.426 19.188 98.1203 18.7337 98.7374 18.0651C99.0802 17.688 99.3374 17.3109 99.5088 16.9337C99.6974 16.5566 99.8345 16.1795 99.9202 15.8023C100.006 15.4081 100.057 15.0224 100.074 14.6452C100.092 14.251 100.1 13.8653 100.1 13.4881V2.6113H101.232V14.3367C101.232 15.2452 101.086 16.1023 100.794 16.908C100.503 17.6966 100.066 18.3908 99.4831 18.9908C98.9174 19.5908 98.206 20.0622 97.3488 20.4051C96.5089 20.7479 95.5403 20.9193 94.4432 20.9193C92.6947 20.9193 91.3147 20.6793 90.3033 20.1994C89.2919 19.7022 88.5291 19.0937 88.0148 18.3737C87.5006 17.6366 87.1749 16.848 87.0377 16.0081C86.9006 15.1509 86.832 14.371 86.832 13.6681V2.6113Z" fill="#4F4F4F"/>
<path d="M104.233 16.0595H105.982C105.999 16.3509 106.067 16.7109 106.187 17.1394C106.307 17.5509 106.539 17.9537 106.882 18.348C107.224 18.7423 107.722 19.0851 108.373 19.3765C109.024 19.6508 109.89 19.7879 110.97 19.7879C112.324 19.7879 113.404 19.5308 114.21 19.0165C115.033 18.5023 115.444 17.688 115.444 16.5737C115.444 15.6823 115.187 14.9709 114.673 14.4395C114.158 13.9081 113.507 13.4624 112.719 13.1024C111.947 12.7253 111.107 12.391 110.199 12.0996C109.29 11.8082 108.441 11.4568 107.653 11.0453C106.882 10.6339 106.239 10.1197 105.724 9.50253C105.21 8.8854 104.953 8.07114 104.953 7.05974C104.953 6.28833 105.107 5.60264 105.416 5.00266C105.742 4.40267 106.17 3.90554 106.702 3.51127C107.25 3.117 107.876 2.817 108.579 2.6113C109.299 2.40559 110.053 2.30273 110.841 2.30273C111.596 2.30273 112.316 2.39702 113.001 2.58558C113.704 2.75701 114.33 3.02271 114.878 3.3827C115.427 3.72555 115.881 4.15411 116.241 4.66838C116.601 5.16551 116.833 5.73121 116.936 6.36547H115.187C115.05 5.35407 114.587 4.61695 113.798 4.15411C113.027 3.67412 112.084 3.43413 110.97 3.43413C110.301 3.43413 109.71 3.51984 109.196 3.69126C108.681 3.84555 108.244 4.05983 107.884 4.3341C107.542 4.59124 107.276 4.8998 107.087 5.25979C106.916 5.61978 106.83 6.00548 106.83 6.4169C106.83 7.15402 107.096 7.74543 107.627 8.19114C108.159 8.63684 108.819 9.03111 109.607 9.37396C110.413 9.7168 111.279 10.0425 112.204 10.3511C113.147 10.6596 114.013 11.0453 114.801 11.5082C115.607 11.9539 116.276 12.5196 116.807 13.2053C117.338 13.8738 117.604 14.7395 117.604 15.8023C117.604 16.5737 117.45 17.2766 117.141 17.9109C116.833 18.5451 116.396 19.0851 115.83 19.5308C115.264 19.9765 114.578 20.3194 113.773 20.5593C112.984 20.7993 112.093 20.9193 111.099 20.9193C110.121 20.9193 109.221 20.8079 108.399 20.5851C107.576 20.3451 106.856 20.0194 106.239 19.6079C105.639 19.1794 105.159 18.6651 104.799 18.0651C104.456 17.4652 104.267 16.7966 104.233 16.0595Z" fill="#4F4F4F"/>
<path d="M21.3075 2.6113L29.5615 18.0651H29.6644L37.9956 2.6113H39.7698V20.6108H37.4299V6.0312H37.327L29.2015 20.9193H28.7387L20.7932 5.92834H20.6904V20.6108H19.559V2.6113H21.3075Z" stroke="#4F4F4F" stroke-width="1.75998" mask="url(#path-1-outside-1_8126_5108)"/>
<path d="M44.1505 11.611C44.1505 10.6339 44.3305 9.59681 44.6905 8.4997C45.0677 7.40259 45.6505 6.39976 46.4391 5.49121C47.2276 4.56553 48.2304 3.80269 49.4475 3.20271C50.6646 2.60273 52.1217 2.30273 53.8188 2.30273C55.5331 2.30273 57.0159 2.6113 58.2673 3.22842C59.5358 3.8284 60.5815 4.59124 61.4043 5.51693C62.2272 6.44261 62.8357 7.45401 63.23 8.55112C63.6243 9.63109 63.8214 10.6511 63.8214 11.611C63.8214 12.2453 63.7271 12.9139 63.5386 13.6167C63.3671 14.3195 63.1014 15.0224 62.7414 15.7252C62.3986 16.4109 61.9529 17.0709 61.4043 17.7051C60.8558 18.3223 60.2044 18.8708 59.4501 19.3508C58.713 19.8308 57.873 20.2165 56.9302 20.5079C56.0045 20.7822 54.9674 20.9193 53.8188 20.9193C52.1217 20.9193 50.6646 20.6193 49.4475 20.0194C48.2304 19.4022 47.2276 18.6308 46.4391 17.7051C45.6505 16.7795 45.0677 15.7766 44.6905 14.6967C44.3305 13.5996 44.1505 12.571 44.1505 11.611ZM46.6705 11.611C46.6705 12.811 46.8505 13.9167 47.2105 14.9281C47.5876 15.9223 48.0933 16.7795 48.7276 17.4994C49.379 18.2194 50.1418 18.7851 51.0161 19.1965C51.8903 19.5908 52.8417 19.7879 53.8703 19.7879C54.8817 19.7879 55.8331 19.5908 56.7245 19.1965C57.633 18.7851 58.4216 18.2194 59.0901 17.4994C59.7758 16.7795 60.3158 15.9223 60.7101 14.9281C61.1043 13.9167 61.3015 12.811 61.3015 11.611C61.3015 10.4111 61.1043 9.31396 60.7101 8.3197C60.3158 7.3083 59.7758 6.44261 59.0901 5.72263C58.4216 5.00266 57.633 4.44553 56.7245 4.05125C55.8331 3.63984 54.8817 3.43413 53.8703 3.43413C52.8417 3.43413 51.8903 3.63984 51.0161 4.05125C50.1418 4.44553 49.379 5.00266 48.7276 5.72263C48.0933 6.44261 47.5876 7.3083 47.2105 8.3197C46.8505 9.31396 46.6705 10.4111 46.6705 11.611Z" stroke="#4F4F4F" stroke-width="1.75998" mask="url(#path-1-outside-1_8126_5108)"/>
<path d="M68.4559 20.6108V2.6113H74.37C75.7928 2.6113 77.0956 2.84272 78.2784 3.30556C79.4613 3.75126 80.4727 4.37696 81.3126 5.18265C82.1698 5.9712 82.8297 6.91403 83.2926 8.01114C83.7726 9.10825 84.0126 10.2911 84.0126 11.5596C84.0126 12.8796 83.764 14.0967 83.2669 15.2109C82.7869 16.308 82.1183 17.2594 81.2612 18.0651C80.4212 18.8708 79.4356 19.4965 78.3042 19.9422C77.1728 20.3879 75.9642 20.6108 74.6785 20.6108H68.4559ZM70.7958 19.4794H73.6243C75.03 19.4794 76.2214 19.248 77.1985 18.7851C78.1927 18.3051 79.007 17.688 79.6413 16.9337C80.2755 16.1795 80.7384 15.3395 81.0298 14.4138C81.3212 13.471 81.4669 12.5367 81.4669 11.611C81.4669 10.5825 81.2955 9.59681 80.9526 8.65398C80.6098 7.69401 80.1041 6.85403 79.4355 6.13405C78.7841 5.39693 77.9699 4.81409 76.9928 4.38553C76.0156 3.95697 74.8928 3.74269 73.6243 3.74269H70.7958V19.4794Z" stroke="#4F4F4F" stroke-width="1.75998" mask="url(#path-1-outside-1_8126_5108)"/>
<path d="M86.832 2.6113H89.1719V14.3624C89.1719 14.7052 89.1805 15.0481 89.1977 15.3909C89.2148 15.7338 89.2748 16.0766 89.3777 16.4195C89.4805 16.7452 89.6348 17.0794 89.8405 17.4223C90.0462 17.7651 90.3462 18.108 90.7405 18.4508C91.2376 18.8965 91.7604 19.2308 92.309 19.4537C92.8747 19.6765 93.5175 19.7879 94.2375 19.7879C95.0775 19.7879 95.8832 19.6679 96.6546 19.428C97.426 19.188 98.1203 18.7337 98.7374 18.0651C99.0802 17.688 99.3374 17.3109 99.5088 16.9337C99.6974 16.5566 99.8345 16.1795 99.9202 15.8023C100.006 15.4081 100.057 15.0224 100.074 14.6452C100.092 14.251 100.1 13.8653 100.1 13.4881V2.6113H101.232V14.3367C101.232 15.2452 101.086 16.1023 100.794 16.908C100.503 17.6966 100.066 18.3908 99.4831 18.9908C98.9174 19.5908 98.206 20.0622 97.3488 20.4051C96.5089 20.7479 95.5403 20.9193 94.4432 20.9193C92.6947 20.9193 91.3147 20.6793 90.3033 20.1994C89.2919 19.7022 88.5291 19.0937 88.0148 18.3737C87.5006 17.6366 87.1749 16.848 87.0377 16.0081C86.9006 15.1509 86.832 14.371 86.832 13.6681V2.6113Z" stroke="#4F4F4F" stroke-width="1.75998" mask="url(#path-1-outside-1_8126_5108)"/>
<path d="M104.233 16.0595H105.982C105.999 16.3509 106.067 16.7109 106.187 17.1394C106.307 17.5509 106.539 17.9537 106.882 18.348C107.224 18.7423 107.722 19.0851 108.373 19.3765C109.024 19.6508 109.89 19.7879 110.97 19.7879C112.324 19.7879 113.404 19.5308 114.21 19.0165C115.033 18.5023 115.444 17.688 115.444 16.5737C115.444 15.6823 115.187 14.9709 114.673 14.4395C114.158 13.9081 113.507 13.4624 112.719 13.1024C111.947 12.7253 111.107 12.391 110.199 12.0996C109.29 11.8082 108.441 11.4568 107.653 11.0453C106.882 10.6339 106.239 10.1197 105.724 9.50253C105.21 8.8854 104.953 8.07114 104.953 7.05974C104.953 6.28833 105.107 5.60264 105.416 5.00266C105.742 4.40267 106.17 3.90554 106.702 3.51127C107.25 3.117 107.876 2.817 108.579 2.6113C109.299 2.40559 110.053 2.30273 110.841 2.30273C111.596 2.30273 112.316 2.39702 113.001 2.58558C113.704 2.75701 114.33 3.02271 114.878 3.3827C115.427 3.72555 115.881 4.15411 116.241 4.66838C116.601 5.16551 116.833 5.73121 116.936 6.36547H115.187C115.05 5.35407 114.587 4.61695 113.798 4.15411C113.027 3.67412 112.084 3.43413 110.97 3.43413C110.301 3.43413 109.71 3.51984 109.196 3.69126C108.681 3.84555 108.244 4.05983 107.884 4.3341C107.542 4.59124 107.276 4.8998 107.087 5.25979C106.916 5.61978 106.83 6.00548 106.83 6.4169C106.83 7.15402 107.096 7.74543 107.627 8.19114C108.159 8.63684 108.819 9.03111 109.607 9.37396C110.413 9.7168 111.279 10.0425 112.204 10.3511C113.147 10.6596 114.013 11.0453 114.801 11.5082C115.607 11.9539 116.276 12.5196 116.807 13.2053C117.338 13.8738 117.604 14.7395 117.604 15.8023C117.604 16.5737 117.45 17.2766 117.141 17.9109C116.833 18.5451 116.396 19.0851 115.83 19.5308C115.264 19.9765 114.578 20.3194 113.773 20.5593C112.984 20.7993 112.093 20.9193 111.099 20.9193C110.121 20.9193 109.221 20.8079 108.399 20.5851C107.576 20.3451 106.856 20.0194 106.239 19.6079C105.639 19.1794 105.159 18.6651 104.799 18.0651C104.456 17.4652 104.267 16.7966 104.233 16.0595Z" stroke="#4F4F4F" stroke-width="1.75998" mask="url(#path-1-outside-1_8126_5108)"/>
<path d="M38.9398 38.12H38.4789L38.5003 38.5804C38.5376 39.3823 38.7438 40.1194 39.1235 40.7839L39.1234 40.784L39.1282 40.792C39.5209 41.4465 40.0433 42.0048 40.6897 42.4665L40.6955 42.4706L40.7014 42.4745C41.361 42.9143 42.123 43.2573 42.9822 43.5079L42.9822 43.508L42.9904 43.5102C43.8557 43.7446 44.7949 43.8598 45.8053 43.8598C46.8338 43.8598 47.7691 43.7358 48.6063 43.4812C49.456 43.2279 50.1932 42.862 50.8089 42.3769C51.4256 41.891 51.9055 41.2991 52.2437 40.6038C52.5841 39.9041 52.7509 39.1346 52.7509 38.3028C52.7509 37.1665 52.4659 36.1977 51.8599 35.4341C51.291 34.7007 50.5777 34.0984 49.726 33.6264C48.9097 33.1478 48.0169 32.7506 47.0489 32.4337C46.1343 32.1288 45.2807 31.8076 44.4878 31.4703C43.7299 31.1406 43.1088 30.7672 42.6168 30.3545C42.192 29.9982 41.9769 29.5337 41.9769 28.9174C41.9769 28.5722 42.0477 28.2539 42.1877 27.957C42.344 27.6613 42.5642 27.4048 42.8551 27.1866L42.8551 27.1866L42.8578 27.1846C43.1687 26.9477 43.5561 26.755 44.029 26.6132L44.029 26.6134L44.0417 26.6092C44.502 26.4557 45.0449 26.3746 45.6768 26.3746C46.7275 26.3746 47.5854 26.6005 48.2728 27.0282L48.2727 27.0283L48.2825 27.0341C48.94 27.4199 49.3364 28.0298 49.4578 28.9251L49.5094 29.306H49.8938H51.6423H52.1594L52.0766 28.7955C51.9635 28.098 51.7075 27.4684 51.3065 26.9137C50.9128 26.3521 50.4168 25.8848 49.8226 25.5127C49.2306 25.1249 48.5611 24.8419 47.8186 24.6601C47.0946 24.4616 46.3373 24.3632 45.5482 24.3632C44.7209 24.3632 43.9259 24.4712 43.1645 24.6887L43.1645 24.6887L43.1618 24.6895C42.4152 24.908 41.7437 25.2288 41.1515 25.6545L41.1515 25.6544L41.1461 25.6584C40.5616 26.0921 40.0912 26.6388 39.736 27.2932L39.7359 27.2932L39.7314 27.3019C39.3865 27.9725 39.2198 28.7289 39.2198 29.5602C39.2198 30.6472 39.4974 31.5698 40.0932 32.2847C40.6469 32.9492 41.3356 33.4983 42.1527 33.9341L42.1527 33.9341L42.1562 33.9359C42.9685 34.3597 43.8403 34.7205 44.771 35.0191C45.6615 35.3047 46.4816 35.6313 47.232 35.9982L47.232 35.9983L47.2426 36.0032C47.9896 36.3442 48.5932 36.7602 49.0633 37.246C49.4824 37.679 49.7109 38.2721 49.7109 39.0742C49.7109 40.0633 49.3567 40.7232 48.6835 41.1439L48.6835 41.1439L48.6799 41.1461C47.9686 41.6002 46.9805 41.8484 45.6768 41.8484C44.6303 41.8484 43.8311 41.7149 43.2549 41.4733C42.6441 41.1995 42.2081 40.8907 41.9203 40.5598C41.6109 40.2039 41.416 39.8567 41.3171 39.5189C41.2021 39.1078 41.1422 38.7819 41.1276 38.5341L41.1032 38.12H40.6883H38.9398ZM63.8048 43.5513H64.2448V43.1113V26.966H70.696H71.136V26.526V25.1118V24.6718H70.696H54.5737H54.1337V25.1118V26.526V26.966H54.5737H61.0249V43.1113V43.5513H61.4649H63.8048ZM71.9815 24.6718H71.2332L71.597 25.3257L77.7642 36.4113V43.1113V43.5513H78.2042H80.5441H80.9841V43.1113V36.1837L87.2507 25.3318L87.6318 24.6718H86.8697H85.4811H85.2277L85.1005 24.891L79.9349 33.798L75.0151 24.8989L74.8895 24.6718H74.63H71.9815ZM90.2783 43.1113V43.5513H90.7183H102.341H102.781V43.1113V41.697V41.257H102.341H93.4982V25.1118V24.6718H93.0582H90.7183H90.2783V25.1118V43.1113ZM106.187 24.6718H105.747V25.1118V43.1113V43.5513H106.187H117.809H118.249V43.1113V41.697V41.257H117.809H108.966V34.6029H116.498H116.938V34.163V32.9801V32.5401H116.498H108.966V26.966H117.809H118.249V26.526V25.1118V24.6718H117.809H106.187Z" fill="#4F4F4F" stroke="#4F4F4F" stroke-width="0.879992"/>
<path d="M9.47894 3.42139V25.7818C9.47894 27.6342 10.9806 29.1359 12.833 29.1359H34.0754" stroke="#4F4F4F" stroke-width="3.07997" stroke-linecap="round"/>
<path d="M2.77094 3.42139V30.2539C2.77094 33.3413 5.27371 35.844 8.36105 35.844H34.0756" stroke="#FE3C00" stroke-width="3.07997" stroke-linecap="round"/>
<path d="M2.77094 42.5522L34.0755 42.5522" stroke="#4F4F4F" stroke-width="3.07997" stroke-linecap="round"/>
</svg>
